<?xml version="1.0" standalone="no"?>
<!DOCTYPE svg PUBLIC "-//W3C//DTD SVG 20010904//EN"
 "http://www.w3.org/TR/2001/REC-SVG-20010904/DTD/svg10.dtd">
<svg version="1.0" xmlns="http://www.w3.org/2000/svg"
 width="600.000000pt" height="600.000000pt" viewBox="0 0 600.000000 600.000000"
 preserveAspectRatio="xMidYMid meet">
<metadata>
Created by potrace 1.10, written by Peter Selinger 2001-2011
</metadata>
<g transform="translate(0.000000,600.000000) scale(0.100000,-0.100000)"
fill="#000000" stroke="none">
<path d="M3840 4864 c0 -4 5 -24 12 -45 9 -32 8 -61 -7 -154 -10 -64 -22 -118
-26 -121 -5 -3 -9 -13 -9 -22 -1 -9 -9 -35 -20 -57 -11 -22 -19 -46 -20 -52 0
-7 -3 -13 -7 -13 -5 0 -20 -21 -35 -48 -15 -26 -56 -77 -93 -115 -78 -80 -143
-123 -285 -186 -86 -38 -286 -51 -400 -26 -82 18 -91 21 -165 55 -88 41 -158
90 -225 159 -36 37 -87 84 -115 106 -27 21 -64 54 -82 74 l-32 36 -208 0 -208
0 2 -39 c2 -22 7 -44 13 -50 5 -5 10 -16 10 -24 0 -13 23 -70 58 -142 9 -19
36 -63 60 -97 23 -35 42 -65 42 -68 0 -9 44 -60 107 -122 69 -69 123 -103 198
-128 28 -9 60 -23 72 -31 12 -8 38 -14 56 -14 19 0 40 -7 47 -15 7 -8 28 -15
46 -15 19 0 76 -7 126 -16 93 -16 118 -16 306 5 227 26 478 145 679 321 46 40
183 200 183 214 0 3 13 24 29 48 65 96 130 257 152 373 5 28 14 68 19 90 5 22
11 59 15 83 l5 42 -150 0 c-82 0 -150 -3 -150 -6z"/>
<path d="M0 4265 l0 -255 208 -2 207 -3 5 -825 5 -825 591 -3 c536 -2 593 -1
605 14 14 17 34 65 49 119 7 27 24 71 58 156 6 15 21 29 34 32 33 9 541 8 553
-1 12 -8 36 -57 59 -119 41 -108 49 -130 67 -163 l18 -35 683 0 683 0 3 633
c1 400 -1 632 -7 632 -6 0 -32 -12 -58 -27 -61 -35 -151 -76 -228 -105 -83
-31 -131 -42 -322 -68 -54 -7 -93 -17 -93 -24 0 -6 0 -222 0 -479 0 -466 0
-468 -20 -457 -11 6 -20 17 -20 25 0 8 -7 31 -16 52 -9 21 -23 52 -29 68 -7
17 -21 48 -30 70 -24 54 -37 86 -75 180 -18 44 -39 95 -46 112 -8 18 -21 49
-29 68 -8 19 -22 51 -30 70 -8 19 -21 50 -29 68 -7 17 -28 68 -46 112 -64 158
-83 198 -102 206 -7 3 -29 13 -48 21 -46 20 -180 86 -205 101 -104 63 -243
186 -361 320 l-51 57 -104 0 c-108 0 -149 -13 -149 -45 0 -8 -7 -31 -16 -52
-9 -21 -23 -53 -30 -70 -8 -18 -21 -50 -30 -70 -37 -87 -42 -100 -59 -143 -9
-25 -23 -58 -30 -75 -7 -16 -20 -50 -30 -75 -10 -25 -24 -60 -31 -77 -8 -18
-20 -48 -28 -65 -7 -18 -21 -53 -31 -78 -9 -25 -23 -58 -30 -75 -7 -16 -27
-66 -45 -110 -17 -44 -38 -93 -45 -110 -7 -16 -27 -66 -45 -110 -17 -44 -38
-93 -45 -110 -31 -72 -97 -240 -109 -277 -3 -10 -12 -18 -21 -18 -13 0 -15 85
-13 788 l3 787 210 5 210 5 0 250 0 250 -757 3 -758 2 0 -255z m2067 -830 c8
-22 17 -51 20 -65 3 -14 12 -34 19 -45 8 -11 14 -29 14 -40 0 -12 7 -30 15
-41 8 -10 15 -27 15 -36 0 -10 7 -33 15 -53 37 -88 42 -101 38 -112 -4 -10
-46 -13 -165 -13 l-160 0 5 38 c2 20 14 62 26 92 13 30 26 66 31 80 5 14 18
50 30 80 12 30 24 64 27 75 8 34 37 85 46 82 5 -1 16 -21 24 -42z"/>
<path d="M4419 4493 c-6 -15 -13 -41 -16 -58 -3 -16 -14 -55 -24 -85 -75 -221
-182 -395 -341 -553 l-28 -28 2 -707 3 -707 325 0 325 0 3 408 2 408 112 -3
c87 -2 112 -6 118 -18 4 -8 14 -30 23 -48 9 -19 17 -40 17 -47 0 -7 6 -26 14
-42 8 -15 22 -48 31 -73 10 -25 23 -57 31 -72 8 -14 14 -33 14 -41 0 -9 6 -28
14 -44 8 -15 22 -48 31 -73 9 -25 23 -58 30 -75 7 -16 19 -48 28 -70 31 -82
51 -131 69 -172 l20 -43 348 0 c373 0 368 -1 344 50 -11 23 -23 51 -59 135 -7
17 -27 66 -45 110 -17 44 -38 94 -45 110 -7 17 -27 66 -45 110 -18 44 -39 95
-46 112 -27 61 -42 98 -59 143 -20 51 -37 93 -56 132 -11 24 -10 31 6 48 10
11 26 20 35 20 10 0 23 7 30 15 7 8 17 15 22 15 17 0 93 63 131 109 92 110
137 249 137 421 0 117 -25 240 -61 300 -5 8 -13 25 -19 37 -11 27 -112 129
-155 159 -37 25 -161 84 -177 84 -7 0 -30 6 -53 14 -96 33 -182 39 -602 43
l-423 4 -11 -28z m541 -446 c122 -3 151 -6 179 -23 80 -45 101 -81 101 -174 0
-64 -4 -81 -25 -113 -60 -87 -139 -110 -375 -105 l-165 3 -3 190 c-1 105 0
199 2 210 5 19 12 20 73 18 37 -1 133 -4 213 -6z"/>
<path d="M5672 2132 c-141 -35 -212 -159 -169 -297 42 -138 229 -198 377 -122
62 32 70 33 70 7 0 -11 4 -20 9 -20 5 0 16 -3 25 -6 14 -5 16 8 16 105 l0 111
-32 1 c-18 1 -69 3 -113 4 -82 4 -113 -4 -101 -24 4 -7 40 -11 91 -11 46 0 86
-3 88 -7 3 -5 2 -23 0 -41 -4 -23 -18 -43 -50 -69 -43 -35 -49 -37 -122 -38
-94 0 -120 7 -156 42 -65 64 -80 160 -40 241 61 121 276 129 358 12 12 -18 21
-21 46 -15 32 7 43 25 16 25 -9 0 -21 11 -27 25 -16 35 -62 62 -139 80 -75 17
-67 18 -147 -3z"/>
<path d="M463 2124 c-10 -4 -13 -57 -13 -215 l0 -209 25 0 c24 0 24 2 27 88
l3 87 119 3 c74 2 123 -1 131 -8 7 -6 19 -43 26 -82 7 -38 19 -76 26 -84 20
-19 46 -6 39 20 -3 11 -9 46 -12 76 -4 34 -14 63 -27 77 l-20 22 31 36 c42 47
49 80 28 119 -34 63 -54 69 -220 73 -83 1 -157 0 -163 -3z m297 -51 c33 -22
40 -33 40 -64 0 -38 -28 -65 -82 -78 -63 -15 -191 -14 -206 1 -13 13 -17 140
-5 151 3 4 56 7 117 7 88 0 117 -4 136 -17z"/>
<path d="M1362 2118 c-9 -9 -12 -69 -12 -210 l0 -198 26 -10 c15 -6 97 -9 188
-8 143 3 161 5 164 20 3 16 -12 18 -160 20 l-163 3 -3 50 c-2 27 -1 65 3 82
l6 33 139 0 c87 0 140 4 140 10 0 6 1 13 3 18 1 4 -63 9 -143 12 l-145 5 0 70
0 70 150 3 c169 3 183 5 165 27 -10 12 -44 15 -179 15 -117 0 -171 -4 -179
-12z"/>
<path d="M2237 2118 c-16 -12 -17 -34 -15 -213 3 -199 3 -200 26 -203 l22 -3
0 163 c0 90 4 169 9 176 5 9 52 -39 157 -162 136 -160 152 -175 182 -176 17 0
33 3 33 8 1 4 3 94 4 200 3 162 1 195 -12 208 -32 32 -38 11 -43 -164 -3 -95
-8 -173 -12 -175 -3 -1 -16 12 -29 28 -12 17 -43 53 -68 81 -39 42 -150 174
-186 219 -16 20 -50 26 -68 13z"/>
<path d="M3127 2123 c-4 -3 -7 -12 -7 -20 0 -10 21 -13 85 -13 l85 0 0 -196 0
-195 28 3 27 3 3 193 2 192 85 0 c66 0 85 3 85 14 0 8 -7 17 -16 20 -21 8
-369 8 -377 -1z"/>
<path d="M4002 2121 c-11 -6 -14 -53 -15 -212 l-1 -204 27 -3 27 -3 -2 212
c-2 130 -7 214 -13 216 -5 1 -16 -1 -23 -6z"/>
<path d="M4583 2122 c-18 -12 -20 -412 -2 -423 8 -4 19 -3 27 3 10 9 12 49 11
175 -1 90 0 165 3 168 6 7 49 -40 222 -245 44 -52 87 -98 95 -101 9 -4 26 -3
39 2 22 8 22 10 22 207 0 208 -5 231 -44 216 -14 -5 -16 -28 -16 -175 0 -93
-4 -169 -9 -169 -4 0 -70 72 -145 160 -180 210 -171 202 -203 182z"/>
<path d="M3300 1305 l0 -165 440 0 440 0 -2 163 -3 162 -437 3 -438 2 0 -165z"/>
<path d="M5107 1463 c-4 -3 -7 -78 -7 -165 l0 -158 450 0 450 0 0 165 0 165
-443 0 c-244 0 -447 -3 -450 -7z"/>
</g>
</svg>
